HIERARCHY
ROOT joint_0
{
	OFFSET 0.000000 0.000000 0.000000
	CHANNELS 6 Xposition Yposition Zposition Zrotation Yrotation Xrotation 
	JOINT joint_1
	{
		OFFSET 6.590088 -1.122192 114.019043
		CHANNELS 3 Zrotation Yrotation Xrotation
		JOINT joint_2
		{
			OFFSET -5.956055 -0.820435 104.151001
			CHANNELS 3 Zrotation Yrotation Xrotation
			JOINT joint_3
			{
				OFFSET -7.343506 -1.103027 103.942993
				CHANNELS 3 Zrotation Yrotation Xrotation
				JOINT joint_4
				{
					OFFSET 3.109131 -2.857056 147.715942
					CHANNELS 3 Zrotation Yrotation Xrotation
					JOINT joint_5
					{
						OFFSET 28.592285 -2.852295 87.703979
						CHANNELS 3 Zrotation Yrotation Xrotation
						End Site
						{
							OFFSET 0.000000 0.000000 0.000000
						}
					}
				}
				JOINT joint_6
				{
					OFFSET -0.332520 -33.687378 82.401978
					CHANNELS 3 Zrotation Yrotation Xrotation
					JOINT joint_7
					{
						OFFSET -7.397461 -168.719177 -22.750977
						CHANNELS 3 Zrotation Yrotation Xrotation
						JOINT joint_8
						{
							OFFSET 17.065918 -24.903137 -272.721069
							CHANNELS 3 Zrotation Yrotation Xrotation
							JOINT joint_9
							{
								OFFSET 33.311279 -37.031616 -278.192993
								CHANNELS 3 Zrotation Yrotation Xrotation
								End Site
								{
									OFFSET 0.000000 0.000000 0.000000
								}
							}
						}
					}
				}
				JOINT joint_10
				{
					OFFSET 3.914307 30.461670 83.552979
					CHANNELS 3 Zrotation Yrotation Xrotation
					JOINT joint_11
					{
						OFFSET 15.543701 166.845459 -30.963013
						CHANNELS 3 Zrotation Yrotation Xrotation
						JOINT joint_12
						{
							OFFSET 35.734863 35.017700 -269.786011
							CHANNELS 3 Zrotation Yrotation Xrotation
							JOINT joint_13
							{
								OFFSET 70.506592 13.977783 -273.320007
								CHANNELS 3 Zrotation Yrotation Xrotation
								End Site
								{
									OFFSET 0.000000 0.000000 0.000000
								}
							}
						}
					}
				}
			}
		}
	}
	JOINT joint_14
	{
		OFFSET -0.314697 -95.093994 -116.004028
		CHANNELS 3 Zrotation Yrotation Xrotation
		JOINT joint_15
		{
			OFFSET -22.490723 2.017883 -455.510986
			CHANNELS 3 Zrotation Yrotation Xrotation
			JOINT joint_16
			{
				OFFSET -46.427490 7.144104 -496.360985
				CHANNELS 3 Zrotation Yrotation Xrotation
				JOINT joint_17
				{
					OFFSET 209.055420 -37.122803 -85.191002
					CHANNELS 3 Zrotation Yrotation Xrotation
					End Site
					{
						OFFSET 0.000000 0.000000 0.000000
					}
				}
			}
		}
	}
	JOINT joint_18
	{
		OFFSET 5.652832 94.642578 -116.244019
		CHANNELS 3 Zrotation Yrotation Xrotation
		JOINT joint_19
		{
			OFFSET -12.379883 -7.332642 -455.843994
			CHANNELS 3 Zrotation Yrotation Xrotation
			JOINT joint_20
			{
				OFFSET -45.227051 -8.172241 -496.457985
				CHANNELS 3 Zrotation Yrotation Xrotation
				JOINT joint_21
				{
					OFFSET 210.522949 -11.530396 -88.809004
					CHANNELS 3 Zrotation Yrotation Xrotation
					End Site
					{
						OFFSET 0.000000 0.000000 0.000000
					}
				}
			}
		}
	}
}
MOTION
Frames: 5
Frame Time: 0.016667
-2830.817383 1031.475342 1180.274048 0.397883 14.164904 1.149889 -0.046522 -3.342776 -1.350274 0.119275 0.483380 0.236332 0.043360 -0.638181 -0.241805 1.757415 -0.786479 -4.398669 0.000000 0.000000 0.000000 -1.323878 10.779990 0.251104 -1.701164 9.320393 -15.455744 -175.921817 -77.572221 -177.896527 0.000000 0.000000 0.000000 3.342895 -4.761255 5.206844 11.354735 -2.005196 1.589307 173.268341 -76.362663 151.800565 0.000000 0.000000 0.000000 -3.206671 -7.289211 -9.048211 -3.605694 -0.859038 -1.664389 -3.730178 7.728388 -0.051692 0.000000 0.000000 0.000000 2.685725 -17.240474 3.980030 2.986753 -8.618765 2.295963 2.857072 14.226921 1.922460 0.000000 0.000000 0.000000 
-2825.891846 1032.070923 1181.665039 -0.249347 14.553996 0.901053 -0.049093 -3.075534 -1.436207 0.140226 0.479211 0.239881 0.063081 -0.614945 -0.253144 1.789853 -1.033154 -4.440369 0.000000 0.000000 0.000000 -1.029419 10.355834 0.232825 -1.838004 9.134060 -15.777478 -176.017734 -78.201184 -178.115093 0.000000 0.000000 0.000000 3.113422 -5.323413 5.232015 11.524530 -2.300708 1.464747 173.360197 -76.814671 151.316299 0.000000 0.000000 0.000000 -2.531415 -7.907015 -9.253969 -2.909680 -0.196418 -1.404453 -3.029088 7.879253 0.245902 0.000000 0.000000 0.000000 2.803637 -17.341697 4.280051 3.123977 -8.568491 2.205541 2.966852 14.201306 1.965721 0.000000 0.000000 0.000000 
-2821.556396 1032.514771 1182.598999 -1.023496 14.845794 0.645383 -0.023111 -2.758786 -1.522032 0.188900 0.503886 0.253059 0.109337 -0.597102 -0.250855 1.793173 -1.304853 -4.406902 0.000000 0.000000 0.000000 -0.711623 9.790480 0.172439 -1.930461 8.839870 -15.965757 -176.041807 -79.014475 -178.508189 0.000000 0.000000 0.000000 2.765219 -5.911772 5.207748 11.856178 -2.636788 1.510946 173.578236 -77.260556 150.653744 0.000000 0.000000 0.000000 -1.677582 -8.524563 -9.551858 -2.031644 0.562872 -1.086354 -2.143731 7.696646 0.554060 0.000000 0.000000 0.000000 2.940688 -17.821153 4.781232 3.283509 -7.592091 1.851041 3.070164 13.672658 1.979409 0.000000 0.000000 0.000000 
-2816.949463 1032.593140 1183.277954 -2.016980 15.154965 0.416912 0.028693 -2.556879 -1.678814 0.268991 0.520710 0.281941 0.183183 -0.587331 -0.266171 1.790586 -1.488886 -4.359811 0.000000 0.000000 0.000000 -0.429918 9.002485 0.142187 -1.980152 8.341315 -16.174951 -175.957980 -80.205220 -178.815076 0.000000 0.000000 0.000000 2.510921 -6.400746 5.194326 12.166300 -2.941302 1.549796 173.803348 -77.701578 150.093485 0.000000 0.000000 0.000000 -0.875779 -9.278759 -9.871670 -1.211084 1.023253 -0.824204 -1.315529 7.312870 0.803816 0.000000 0.000000 0.000000 3.188769 -18.098308 5.192172 3.537743 -6.919292 1.539115 3.277796 13.193230 2.037919 0.000000 0.000000 0.000000 
-2811.586182 1032.327148 1183.652954 -3.340828 15.513702 0.241765 0.107725 -2.570449 -1.995102 0.398492 0.515805 0.363703 0.297315 -0.586964 -0.318717 1.790690 -1.501867 -4.323709 0.000000 0.000000 0.000000 -0.187604 7.916104 0.213489 -1.970148 7.539170 -16.456871 -175.728863 -81.936780 -179.009012 0.000000 0.000000 0.000000 2.457960 -6.763411 5.174592 12.355233 -3.207726 1.503885 173.975304 -78.221810 149.756831 0.000000 0.000000 0.000000 -0.174293 -10.193337 -10.230842 -0.503213 0.987394 -0.668793 -0.600113 6.580440 0.947209 0.000000 0.000000 0.000000 3.627184 -17.885344 5.347393 3.970042 -7.062397 1.394918 3.675810 12.906571 2.183918 0.000000 0.000000 0.000000 
